<mxfile host="app.diagrams.net" agent="Mozilla/5.0 (X11; Linux x86_64) AppleWebKit/537.36 (KHTML, like Gecko) Chrome/139.0.0.0 Safari/537.36" version="26.1.1">
  <diagram name="Page-1" id="vf8676xWwSwsVDpkcKIF">
    <mxGraphModel dx="1906" dy="2333" grid="1" gridSize="10" guides="1" tooltips="1" connect="1" arrows="1" fold="1" page="1" pageScale="1" pageWidth="850" pageHeight="1400" math="0" shadow="0">
      <root>
        <mxCell id="0" />
        <mxCell id="1" parent="0" />
        <mxCell id="vK8tLTEhmz0fo8iZFx5g-5" value="Create Flow Control File" style="rounded=1;whiteSpace=wrap;html=1;" vertex="1" parent="1">
          <mxGeometry x="190" y="250" width="100" height="60" as="geometry" />
        </mxCell>
        <mxCell id="vK8tLTEhmz0fo8iZFx5g-6" value="Save Source Code" style="rounded=1;whiteSpace=wrap;html=1;" vertex="1" parent="1">
          <mxGeometry x="190" y="140" width="100" height="60" as="geometry" />
        </mxCell>
        <mxCell id="vK8tLTEhmz0fo8iZFx5g-7" value="Does Flow Control File&lt;div&gt;Exist?&lt;/div&gt;" style="rhombus;whiteSpace=wrap;html=1;" vertex="1" parent="1">
          <mxGeometry x="195" y="360" width="90" height="90" as="geometry" />
        </mxCell>
        <mxCell id="vK8tLTEhmz0fo8iZFx5g-8" value="" style="endArrow=classic;html=1;rounded=0;exitX=0.5;exitY=1;exitDx=0;exitDy=0;entryX=0.5;entryY=0;entryDx=0;entryDy=0;" edge="1" parent="1" source="vK8tLTEhmz0fo8iZFx5g-5" target="vK8tLTEhmz0fo8iZFx5g-7">
          <mxGeometry width="50" height="50" relative="1" as="geometry">
            <mxPoint x="450" y="430" as="sourcePoint" />
            <mxPoint x="500" y="380" as="targetPoint" />
          </mxGeometry>
        </mxCell>
        <mxCell id="vK8tLTEhmz0fo8iZFx5g-9" value="" style="endArrow=classic;html=1;rounded=0;exitX=0.5;exitY=1;exitDx=0;exitDy=0;" edge="1" parent="1" source="vK8tLTEhmz0fo8iZFx5g-6" target="vK8tLTEhmz0fo8iZFx5g-5">
          <mxGeometry width="50" height="50" relative="1" as="geometry">
            <mxPoint x="450" y="430" as="sourcePoint" />
            <mxPoint x="500" y="380" as="targetPoint" />
          </mxGeometry>
        </mxCell>
        <mxCell id="vK8tLTEhmz0fo8iZFx5g-10" value="" style="endArrow=classic;html=1;rounded=0;exitX=0;exitY=0.5;exitDx=0;exitDy=0;" edge="1" parent="1" source="vK8tLTEhmz0fo8iZFx5g-7">
          <mxGeometry width="50" height="50" relative="1" as="geometry">
            <mxPoint x="450" y="430" as="sourcePoint" />
            <mxPoint x="240" y="330" as="targetPoint" />
            <Array as="points">
              <mxPoint x="120" y="405" />
              <mxPoint x="120" y="330" />
            </Array>
          </mxGeometry>
        </mxCell>
        <mxCell id="vK8tLTEhmz0fo8iZFx5g-14" value="Reload Source Code File" style="rounded=1;whiteSpace=wrap;html=1;" vertex="1" parent="1">
          <mxGeometry x="190" y="490" width="100" height="60" as="geometry" />
        </mxCell>
        <mxCell id="vK8tLTEhmz0fo8iZFx5g-15" value="Refresh Window" style="rounded=1;whiteSpace=wrap;html=1;" vertex="1" parent="1">
          <mxGeometry x="190" y="590" width="100" height="60" as="geometry" />
        </mxCell>
        <mxCell id="vK8tLTEhmz0fo8iZFx5g-16" value="" style="endArrow=classic;html=1;rounded=0;exitX=0.5;exitY=1;exitDx=0;exitDy=0;entryX=0.5;entryY=0;entryDx=0;entryDy=0;" edge="1" parent="1" source="vK8tLTEhmz0fo8iZFx5g-7" target="vK8tLTEhmz0fo8iZFx5g-14">
          <mxGeometry width="50" height="50" relative="1" as="geometry">
            <mxPoint x="450" y="430" as="sourcePoint" />
            <mxPoint x="500" y="380" as="targetPoint" />
          </mxGeometry>
        </mxCell>
        <mxCell id="vK8tLTEhmz0fo8iZFx5g-17" value="" style="endArrow=classic;html=1;rounded=0;exitX=0.5;exitY=1;exitDx=0;exitDy=0;entryX=0.5;entryY=0;entryDx=0;entryDy=0;" edge="1" parent="1" source="vK8tLTEhmz0fo8iZFx5g-14" target="vK8tLTEhmz0fo8iZFx5g-15">
          <mxGeometry width="50" height="50" relative="1" as="geometry">
            <mxPoint x="450" y="430" as="sourcePoint" />
            <mxPoint x="500" y="380" as="targetPoint" />
          </mxGeometry>
        </mxCell>
        <mxCell id="vK8tLTEhmz0fo8iZFx5g-18" value="No" style="text;html=1;align=center;verticalAlign=middle;whiteSpace=wrap;rounded=0;" vertex="1" parent="1">
          <mxGeometry x="230" y="450" width="60" height="30" as="geometry" />
        </mxCell>
        <mxCell id="vK8tLTEhmz0fo8iZFx5g-20" value="&lt;font style=&quot;font-size: 14px;&quot;&gt;QBasic &quot;Vibe it!&quot; Function&lt;/font&gt;" style="swimlane;whiteSpace=wrap;html=1;" vertex="1" parent="1">
          <mxGeometry x="100" y="100" width="210" height="560" as="geometry" />
        </mxCell>
        <mxCell id="vK8tLTEhmz0fo8iZFx5g-12" value="Yes" style="text;html=1;align=center;verticalAlign=middle;whiteSpace=wrap;rounded=0;" vertex="1" parent="vK8tLTEhmz0fo8iZFx5g-20">
          <mxGeometry x="10" y="300" width="60" height="30" as="geometry" />
        </mxCell>
        <mxCell id="vK8tLTEhmz0fo8iZFx5g-24" value="" style="sketch=0;outlineConnect=0;fontColor=#232F3E;gradientColor=none;fillColor=#01A88D;strokeColor=none;dashed=0;verticalLabelPosition=bottom;verticalAlign=top;align=center;html=1;fontSize=12;fontStyle=0;aspect=fixed;shape=mxgraph.aws4.transfer_for_ftp_resource;" vertex="1" parent="1">
          <mxGeometry x="167" y="-40" width="76" height="78" as="geometry" />
        </mxCell>
        <mxCell id="vK8tLTEhmz0fo8iZFx5g-25" value="FTP Server" style="text;html=1;align=center;verticalAlign=middle;whiteSpace=wrap;rounded=0;" vertex="1" parent="1">
          <mxGeometry x="165" y="38" width="80" height="30" as="geometry" />
        </mxCell>
        <mxCell id="vK8tLTEhmz0fo8iZFx5g-26" value="&lt;font style=&quot;font-size: 14px;&quot;&gt;vibe.py&lt;/font&gt;" style="swimlane;whiteSpace=wrap;html=1;startSize=23;" vertex="1" parent="1">
          <mxGeometry x="500" y="100" width="210" height="560" as="geometry" />
        </mxCell>
        <mxCell id="vK8tLTEhmz0fo8iZFx5g-27" value="Does Flow Control File&lt;div&gt;Exist?&lt;/div&gt;" style="rhombus;whiteSpace=wrap;html=1;" vertex="1" parent="vK8tLTEhmz0fo8iZFx5g-26">
          <mxGeometry x="60" y="40" width="90" height="90" as="geometry" />
        </mxCell>
        <mxCell id="vK8tLTEhmz0fo8iZFx5g-31" value="Download Source Code" style="rounded=1;whiteSpace=wrap;html=1;" vertex="1" parent="vK8tLTEhmz0fo8iZFx5g-26">
          <mxGeometry x="55" y="160" width="100" height="60" as="geometry" />
        </mxCell>
        <mxCell id="vK8tLTEhmz0fo8iZFx5g-36" value="Prompt LLM with Source Code" style="rounded=1;whiteSpace=wrap;html=1;" vertex="1" parent="vK8tLTEhmz0fo8iZFx5g-26">
          <mxGeometry x="55" y="250" width="100" height="60" as="geometry" />
        </mxCell>
        <mxCell id="vK8tLTEhmz0fo8iZFx5g-37" value="" style="endArrow=classic;html=1;rounded=0;exitX=0.5;exitY=1;exitDx=0;exitDy=0;entryX=0.5;entryY=0;entryDx=0;entryDy=0;" edge="1" parent="vK8tLTEhmz0fo8iZFx5g-26" source="vK8tLTEhmz0fo8iZFx5g-31" target="vK8tLTEhmz0fo8iZFx5g-36">
          <mxGeometry width="50" height="50" relative="1" as="geometry">
            <mxPoint x="-100" y="220" as="sourcePoint" />
            <mxPoint x="-50" y="170" as="targetPoint" />
          </mxGeometry>
        </mxCell>
        <mxCell id="vK8tLTEhmz0fo8iZFx5g-39" value="Write a New Source Code File" style="rounded=1;whiteSpace=wrap;html=1;" vertex="1" parent="vK8tLTEhmz0fo8iZFx5g-26">
          <mxGeometry x="55" y="330" width="100" height="60" as="geometry" />
        </mxCell>
        <mxCell id="vK8tLTEhmz0fo8iZFx5g-41" value="Upload Source Code (FTP)" style="rounded=1;whiteSpace=wrap;html=1;" vertex="1" parent="vK8tLTEhmz0fo8iZFx5g-26">
          <mxGeometry x="55" y="410" width="100" height="60" as="geometry" />
        </mxCell>
        <mxCell id="vK8tLTEhmz0fo8iZFx5g-42" value="Delete Flow Control File (FTP)" style="rounded=1;whiteSpace=wrap;html=1;" vertex="1" parent="vK8tLTEhmz0fo8iZFx5g-26">
          <mxGeometry x="55" y="490" width="100" height="60" as="geometry" />
        </mxCell>
        <mxCell id="vK8tLTEhmz0fo8iZFx5g-43" value="" style="endArrow=classic;html=1;rounded=0;exitX=0.5;exitY=1;exitDx=0;exitDy=0;" edge="1" parent="vK8tLTEhmz0fo8iZFx5g-26" source="vK8tLTEhmz0fo8iZFx5g-39" target="vK8tLTEhmz0fo8iZFx5g-41">
          <mxGeometry width="50" height="50" relative="1" as="geometry">
            <mxPoint x="-100" y="220" as="sourcePoint" />
            <mxPoint x="-50" y="170" as="targetPoint" />
          </mxGeometry>
        </mxCell>
        <mxCell id="vK8tLTEhmz0fo8iZFx5g-44" value="" style="endArrow=classic;html=1;rounded=0;exitX=0.5;exitY=1;exitDx=0;exitDy=0;entryX=0.5;entryY=0;entryDx=0;entryDy=0;" edge="1" parent="vK8tLTEhmz0fo8iZFx5g-26" source="vK8tLTEhmz0fo8iZFx5g-41" target="vK8tLTEhmz0fo8iZFx5g-42">
          <mxGeometry width="50" height="50" relative="1" as="geometry">
            <mxPoint x="-110" y="420" as="sourcePoint" />
            <mxPoint x="-60" y="370" as="targetPoint" />
          </mxGeometry>
        </mxCell>
        <mxCell id="vK8tLTEhmz0fo8iZFx5g-28" value="" style="endArrow=classic;html=1;rounded=0;exitX=0;exitY=0.5;exitDx=0;exitDy=0;" edge="1" parent="1" source="vK8tLTEhmz0fo8iZFx5g-27" target="vK8tLTEhmz0fo8iZFx5g-24">
          <mxGeometry width="50" height="50" relative="1" as="geometry">
            <mxPoint x="400" y="320" as="sourcePoint" />
            <mxPoint x="470" as="targetPoint" />
            <Array as="points">
              <mxPoint x="470" y="185" />
              <mxPoint x="470" />
            </Array>
          </mxGeometry>
        </mxCell>
        <mxCell id="vK8tLTEhmz0fo8iZFx5g-29" value="" style="endArrow=classic;html=1;rounded=0;entryX=1;entryY=0.5;entryDx=0;entryDy=0;" edge="1" parent="1" source="vK8tLTEhmz0fo8iZFx5g-24" target="vK8tLTEhmz0fo8iZFx5g-27">
          <mxGeometry width="50" height="50" relative="1" as="geometry">
            <mxPoint x="400" y="200" as="sourcePoint" />
            <mxPoint x="780" y="220" as="targetPoint" />
            <Array as="points">
              <mxPoint x="205" y="-60" />
              <mxPoint x="740" y="-60" />
              <mxPoint x="740" y="185" />
            </Array>
          </mxGeometry>
        </mxCell>
        <mxCell id="vK8tLTEhmz0fo8iZFx5g-30" value="No" style="text;html=1;align=center;verticalAlign=middle;whiteSpace=wrap;rounded=0;" vertex="1" parent="1">
          <mxGeometry x="240" y="-60" width="60" height="30" as="geometry" />
        </mxCell>
        <mxCell id="vK8tLTEhmz0fo8iZFx5g-32" value="" style="endArrow=classic;html=1;rounded=0;exitX=1;exitY=0;exitDx=0;exitDy=0;entryX=0;entryY=0.5;entryDx=0;entryDy=0;" edge="1" parent="1" source="vK8tLTEhmz0fo8iZFx5g-25" target="vK8tLTEhmz0fo8iZFx5g-31">
          <mxGeometry width="50" height="50" relative="1" as="geometry">
            <mxPoint x="400" y="320" as="sourcePoint" />
            <mxPoint x="450" y="270" as="targetPoint" />
            <Array as="points">
              <mxPoint x="380" y="40" />
              <mxPoint x="380" y="290" />
            </Array>
          </mxGeometry>
        </mxCell>
        <mxCell id="vK8tLTEhmz0fo8iZFx5g-33" value="Yes" style="text;html=1;align=center;verticalAlign=middle;whiteSpace=wrap;rounded=0;" vertex="1" parent="1">
          <mxGeometry x="240" y="38" width="60" height="30" as="geometry" />
        </mxCell>
        <mxCell id="vK8tLTEhmz0fo8iZFx5g-38" value="" style="endArrow=classic;html=1;rounded=0;exitX=1;exitY=0.5;exitDx=0;exitDy=0;entryX=0.07;entryY=0.4;entryDx=0;entryDy=0;entryPerimeter=0;" edge="1" parent="1" source="vK8tLTEhmz0fo8iZFx5g-36" target="vK8tLTEhmz0fo8iZFx5g-34">
          <mxGeometry width="50" height="50" relative="1" as="geometry">
            <mxPoint x="400" y="320" as="sourcePoint" />
            <mxPoint x="450" y="270" as="targetPoint" />
          </mxGeometry>
        </mxCell>
        <mxCell id="vK8tLTEhmz0fo8iZFx5g-40" value="" style="endArrow=classic;html=1;rounded=0;exitX=0.13;exitY=0.77;exitDx=0;exitDy=0;exitPerimeter=0;entryX=1;entryY=0.5;entryDx=0;entryDy=0;" edge="1" parent="1" source="vK8tLTEhmz0fo8iZFx5g-34" target="vK8tLTEhmz0fo8iZFx5g-39">
          <mxGeometry width="50" height="50" relative="1" as="geometry">
            <mxPoint x="400" y="320" as="sourcePoint" />
            <mxPoint x="450" y="270" as="targetPoint" />
          </mxGeometry>
        </mxCell>
        <mxCell id="vK8tLTEhmz0fo8iZFx5g-45" value="&lt;font style=&quot;font-size: 18px;&quot;&gt;Windows 98 Machine&lt;/font&gt;" style="swimlane;whiteSpace=wrap;html=1;fillColor=#33FFFF;shadow=1;strokeColor=#3333FF;" vertex="1" parent="1">
          <mxGeometry x="70" y="-110" width="280" height="790" as="geometry" />
        </mxCell>
        <mxCell id="vK8tLTEhmz0fo8iZFx5g-50" value="&lt;font style=&quot;font-size: 18px;&quot;&gt;Modern Computer&lt;/font&gt;" style="swimlane;whiteSpace=wrap;html=1;fillColor=#33FFFF;shadow=1;strokeColor=#3333FF;" vertex="1" parent="1">
          <mxGeometry x="440" y="-110" width="320" height="790" as="geometry" />
        </mxCell>
        <mxCell id="vK8tLTEhmz0fo8iZFx5g-51" value="&lt;font style=&quot;font-size: 18px;&quot;&gt;Remote Resources&lt;/font&gt;" style="swimlane;whiteSpace=wrap;html=1;fillColor=#33FFFF;shadow=1;strokeColor=#3333FF;startSize=23;" vertex="1" parent="1">
          <mxGeometry x="840" y="-110" width="200" height="790" as="geometry" />
        </mxCell>
        <mxCell id="vK8tLTEhmz0fo8iZFx5g-34" value="Gemini 2.5 Flash Large Language Model" style="ellipse;shape=cloud;whiteSpace=wrap;html=1;" vertex="1" parent="vK8tLTEhmz0fo8iZFx5g-51">
          <mxGeometry x="10" y="460" width="180" height="110" as="geometry" />
        </mxCell>
      </root>
    </mxGraphModel>
  </diagram>
</mxfile>
